<svg xmlns="http://www.w3.org/2000/svg" width="128" height="78" fill="none"><path fill="#231F20" d="M124.911 53.914a3.07 3.07 0 0 1-2.839-1.897 3.067 3.067 0 0 1 .666-3.35 3.072 3.072 0 0 1 4.729.466 3.079 3.079 0 0 1-1.378 4.55 3.061 3.061 0 0 1-1.178.23Zm0-5.787a2.718 2.718 0 1 0 2.724 2.713 2.701 2.701 0 0 0-2.724-2.713Zm-1.139.933h1.515c.53 0 1.034.1 1.06.864a.85.85 0 0 1-.445.848c.35.222.355.275.413.863.032.445-.031.53.159.811h-.529l-.069-.43c-.075-.402.122-1.022-.578-1.022h-1.113v1.452h-.44l.027-3.386Zm.44.381v1.166h1.086c.292 0 .578-.08.62-.53.064-.577-.355-.651-.62-.651l-1.086.015Z"/><path fill="#fff" d="M8.011 70.573H6.093v-3.48H4.625v3.48H2.707v-8.939h1.918v3.296h1.479v-3.296h1.918l-.01 8.94ZM13.777 68.343c-.286 1.616-1.288 2.363-2.39 2.363a2.268 2.268 0 0 1-1.88-.874 4.096 4.096 0 0 1-.77-2.501 4.721 4.721 0 0 1 .684-2.517 2.247 2.247 0 0 1 1.855-1.034c1.553 0 2.501 1.436 2.501 3.625v.355h-3.121c0 .715.154 1.234.7 1.234.413 0 .64-.233.715-.805l1.706.154Zm-1.828-1.887c0-.651-.143-1.15-.657-1.15s-.662.53-.647 1.15h1.304ZM17.48 70.573a5.969 5.969 0 0 1-.063-.927 1.59 1.59 0 0 1-1.526 1.06c-.87 0-1.627-.678-1.627-2.008a2.157 2.157 0 0 1 1.224-2.046 5.648 5.648 0 0 1 1.834-.418v-.053c0-.6-.107-.832-.53-.832-.355 0-.658.18-.71.742l-1.664-.223a2.255 2.255 0 0 1 2.427-2.088 2.351 2.351 0 0 1 1.706.578c.615.61.53 1.473.53 2.421v2.337c-.02.49.03.981.148 1.457H17.48Zm-.159-3.115c-.434.063-1.165.26-1.165 1.06 0 .429.19.609.471.609.69 0 .695-.816.695-1.547v-.122ZM19.463 65.609v-1.696h.758l.137-2.12 1.59-.08v2.205h.933v1.696h-.912v2.294c0 .483-.037.859.392.859.183-.007.362-.047.53-.117v1.865l-1.06.196a1.267 1.267 0 0 1-1.308-.678 3.355 3.355 0 0 1-.345-1.902v-2.517l-.715-.005ZM25.44 70.574h-1.807v-6.661h1.807v6.66Zm0-7.302h-1.807v-1.77h1.807v1.77ZM28.116 63.913v.938a1.377 1.377 0 0 1 2.539-.376c.248.633.348 1.314.291 1.992v4.107h-1.807V66.53c0-.403 0-.965-.392-.965-.53 0-.53.615-.53 1.16v3.848H26.41v-6.661h1.706ZM35.062 68.634a1.591 1.591 0 0 1 1.16.456c.369.47.557 1.056.53 1.653a1.913 1.913 0 0 1-1.06 1.839 4.134 4.134 0 0 1-1.775.286c-.773 0-2.527-.08-2.527-1.643a1.357 1.357 0 0 1 .678-1.293 1.445 1.445 0 0 1-.43-1.06 1.616 1.616 0 0 1 .896-1.472 1.59 1.59 0 0 1-.758-1.537c0-1.722 1.33-2.088 2.279-2.088.295-.008.59.037.869.133.1-.965.434-1.59 1.16-1.59l.53.037h.122l-.047 1.786h-.446c-.164 0-.418 0-.53.243a2.3 2.3 0 0 1 .53 1.5c0 1.67-1.197 2.035-2.12 2.035h-.401c-.154 0-.456 0-.456.328 0 .329.333.313.498.313l1.298.074Zm-1.67 1.85c-.206 0-.455 0-.455.418a.46.46 0 0 0 .366.493c.293.09.6.13.906.116.27 0 .948.064.948-.53 0-.444-.312-.418-.53-.429l-.895-.069h-.34Zm1.225-4.579c0-.53-.18-.832-.53-.832-.35 0-.53.34-.53.822 0 .482.201.805.578.805.376 0 .482-.34.482-.795ZM44.67 66.86a3.71 3.71 0 0 0 .477-1.511l1.622.27a6.3 6.3 0 0 1-1.029 2.766.704.704 0 0 0 .62.25l.409-.043v1.929a2.12 2.12 0 0 1-.737.143 1.812 1.812 0 0 1-1.478-.716 2.31 2.31 0 0 1-1.791.758c-1.203 0-2.517-.773-2.517-2.75a2.501 2.501 0 0 1 1.451-2.464 3.508 3.508 0 0 1-.53-1.749c0-1.669 1.06-2.241 2.062-2.241 1.001 0 1.971.599 1.971 2.188a2.32 2.32 0 0 1-1.182 2.205l.652.964Zm-2.12-.08a1.06 1.06 0 0 0-.455 1.006c0 .663.355.991.795.991a.847.847 0 0 0 .7-.365l-1.04-1.632Zm1.214-3.01c0-.403-.201-.668-.477-.668-.275 0-.434.212-.434.578.04.35.202.676.455.922a.89.89 0 0 0 .45-.832h.006ZM56.073 67.315c-.116 2.061-1.165 3.391-2.612 3.391-1.876 0-2.861-1.945-2.861-4.488 0-2.544.863-4.716 2.834-4.716 1.59 0 2.512 1.356 2.65 3.582l-1.791.132c0-.757-.18-1.706-.827-1.706-.853 0-.885 1.86-.885 2.708 0 .848.032 2.427.901 2.427.594 0 .822-.742.848-1.49l1.743.16ZM61.811 67.304c0 2.019-1.14 3.402-2.565 3.402s-2.564-1.383-2.564-3.402c0-2.12 1.102-3.524 2.564-3.524 1.463 0 2.565 1.383 2.565 3.524Zm-3.18-.095c0 1.785.303 1.918.631 1.918.329 0 .63-.133.63-1.918 0-.636 0-1.797-.63-1.797s-.646 1.187-.646 1.797h.016ZM67.375 67.304c0 2.019-1.139 3.402-2.564 3.402-1.426 0-2.565-1.383-2.565-3.402 0-2.12 1.108-3.524 2.565-3.524 1.457 0 2.564 1.383 2.564 3.524Zm-3.179-.095c0 1.785.302 1.918.63 1.918.33 0 .631-.133.631-1.918 0-.636 0-1.797-.63-1.797s-.647 1.187-.647 1.797h.016ZM69.903 70.573h-1.807v-8.939h1.807v8.94ZM72.69 70.574H70.86v-6.661h1.807l.021 6.66Zm0-7.302H70.86v-1.77h1.807l.021 1.77ZM75.366 63.913v.938a1.378 1.378 0 0 1 2.538-.376c.249.633.349 1.314.291 1.992v4.107H76.39V66.53c0-.403 0-.965-.393-.965-.53 0-.53.615-.53 1.16v3.848h-1.812v-6.661h1.712ZM82.312 68.634a1.59 1.59 0 0 1 1.16.456 2.5 2.5 0 0 1 .53 1.653 1.908 1.908 0 0 1-1.06 1.839 4.097 4.097 0 0 1-1.769.286c-.773 0-2.528-.08-2.528-1.643a1.356 1.356 0 0 1 .679-1.293 1.42 1.42 0 0 1-.43-1.06 1.59 1.59 0 0 1 .89-1.472 1.621 1.621 0 0 1-.752-1.537c0-1.722 1.33-2.088 2.279-2.088.295-.008.59.037.869.133.1-.965.434-1.59 1.155-1.59l.53.037h.122l-.048 1.786h-.445c-.164 0-.419 0-.53.243.35.421.538.953.53 1.5 0 1.67-1.192 2.035-2.12 2.035h-.397c-.159 0-.456 0-.456.328 0 .329.334.313.498.313l1.293.074Zm-1.669 1.85c-.206 0-.456 0-.456.418a.461.461 0 0 0 .366.493c.291.09.596.13.9.116.276 0 .955.064.955-.53 0-.444-.313-.418-.53-.429l-.896-.069h-.339Zm1.224-4.579c0-.53-.18-.832-.53-.832-.35 0-.53.34-.53.822 0 .482.202.805.578.805.376 0 .482-.34.482-.795ZM89.128 67.522c.164.8.583 1.06 1.14 1.06.248 0 .741-.054.741-.53 0-.478-.487-.652-.768-.727-1.177-.328-2.575-.784-2.575-2.909a3.27 3.27 0 0 1 .805-2.241 2.49 2.49 0 0 1 1.796-.678c1.087 0 2.12.636 2.523 2.188l-1.59.694c-.18-.667-.53-.9-1.012-.9a.53.53 0 0 0-.62.572c0 .471.456.561.694.64.628.13 1.228.373 1.77.716a2.798 2.798 0 0 1 .927 2.279c0 2.151-1.494 3.015-2.792 3.015-1.299 0-2.48-.784-2.82-2.73l1.781-.45ZM96.418 70.976c-.35 1.383-.816 1.902-1.854 1.902l-.763-.047h-.16v-1.85l.658.08c.249 0 .795 0 .795-.53a2.895 2.895 0 0 0-.117-.604l-1.637-6.02h1.966l.763 3.545.816-3.545h1.33l-1.797 7.069ZM99.947 68.411c.101.636.599.716.996.716.18 0 .689-.027.689-.419 0-.392-.62-.403-.784-.43-.975-.195-2.12-.465-2.12-2.24a2.294 2.294 0 0 1 .72-1.75 2.15 2.15 0 0 1 1.5-.529 2.12 2.12 0 0 1 2.12 1.738l-1.378.376a.787.787 0 0 0-.816-.588c-.143 0-.583.064-.583.355a.358.358 0 0 0 .276.34c.257.07.519.122.784.153.46.047.898.219 1.267.498a2.201 2.201 0 0 1 .657 1.69c0 1.839-1.357 2.364-2.406 2.364-1.05 0-2.003-.483-2.347-2.025l1.425-.249ZM103.393 65.609v-1.696h.757l.138-2.12 1.59-.08v2.205h.932v1.696h-.911v2.294c0 .483-.037.859.392.859.182-.008.361-.048.53-.117v1.865l-1.06.196a1.266 1.266 0 0 1-1.303-.678 3.358 3.358 0 0 1-.345-1.902v-2.517l-.72-.005ZM112.379 68.343c-.281 1.616-1.282 2.363-2.39 2.363a2.272 2.272 0 0 1-1.881-.874 4.135 4.135 0 0 1-.763-2.501 4.68 4.68 0 0 1 .684-2.517 2.232 2.232 0 0 1 1.854-1.034c1.548 0 2.496 1.436 2.496 3.625v.355h-3.121c0 .715.159 1.234.705 1.234.413 0 .641-.233.71-.805l1.706.154Zm-1.823-1.887c0-.651-.148-1.15-.657-1.15-.508 0-.667.53-.646 1.15h1.303ZM114.731 63.913v.9a1.327 1.327 0 0 1 2.114-.737c.234.186.399.446.466.738a1.435 1.435 0 0 1 1.399-1.034 1.297 1.297 0 0 1 1.087.578c.289.57.405 1.213.333 1.85v4.366h-1.769v-3.975c0-.429.037-.911-.382-.911-.53 0-.493.673-.493 1.208v3.71h-1.77v-4.007c0-.418 0-.953-.413-.953s-.461.424-.461.953V70.6h-1.77v-6.687h1.659ZM122.203 68.412c.101.635.604.715.996.715.186 0 .695-.026.695-.419 0-.392-.62-.402-.785-.429-.975-.196-2.119-.466-2.119-2.241a2.285 2.285 0 0 1 .721-1.749c.41-.363.946-.553 1.494-.53a2.119 2.119 0 0 1 2.119 1.738l-1.377.377a.794.794 0 0 0-.811-.589c-.148 0-.583.064-.583.355a.364.364 0 0 0 .27.34c.258.07.52.121.785.153.461.047.901.22 1.271.498a2.203 2.203 0 0 1 .657 1.69c0 1.84-1.361 2.364-2.411 2.364-1.049 0-1.997-.482-2.342-2.024l1.42-.25Z"/><path fill="#ED1C2E" stroke="#ED1C2E" stroke-width=".106" d="M63.73 56.743.06 45.505 4.828 5.169h117.571l4.769 40.336L63.73 56.743Z"/><path fill="#ED1C2E" stroke="#fff" stroke-width="1.06" d="M63.609 51.868 5.252 41.536 9.03 9.816h109.157l3.778 31.72-58.356 10.332Z"/><path fill="#fff" d="M21.227 14.384h4.376v6.358h.07c.391-1.102 2.024-1.907 3.37-1.907 2.797 0 3.152 2.04 3.152 4.175v11.128c0 2.12-.837 4.112-3.635 4.112-1.346 0-7.333-.074-7.333-.074V14.384Zm4.376 20.337a1.119 1.119 0 0 0 1.103 1.001 1.24 1.24 0 0 0 1.112-1.001V23.3a1.245 1.245 0 0 0-1.112-1 1.118 1.118 0 0 0-1.103 1v11.42ZM41.772 20.695h.074a4.074 4.074 0 0 1 3.603-1.87c2.231 0 2.793 1.271 2.793 3.343v5.092H43.87v-3.958c-.121-.466-.397-1.001-.996-1.001a1.123 1.123 0 0 0-1.102 1.001V38.14h-4.334V19.058h4.334v1.637ZM63.814 19.058l-3.18 19.303c-.529 3.307-1.17 4.558-5.595 4.558h-2.268v-3.62h1.42c.954 0 1.272-.17 1.272-.869.004-.19-.007-.379-.032-.567l-3.566-18.805h4.499l1.722 14.598h.058l1.484-14.598h4.186ZM68.17 23.148c0-2.872 2.405-4.625 5.272-4.625 2.867 0 5.299 1.271 5.299 4.949 0 0-.111 13.597 0 14.868 0 0-5.018.239-7.572.07-2.263-.15-3.01-1.267-3.01-3.44v-4.106c0-4.806 6.359-2.973 6.359-7.111v-.769a1.118 1.118 0 0 0-1.097-1.001.97.97 0 0 0-.938 1.001v1.754h-4.335l.022-1.59Zm4.323 11.255a.868.868 0 0 0 .901.98.9.9 0 0 0 .944-.98v-5.426l-.944.53c-.736.53-.9.657-.9 1.473v3.423ZM88.835 20.732h.07c.285-1.171 1.721-2.066 2.924-2.066 2.867 0 3.614 2.12 3.614 4.334v15.16h-4.372V23.323a1.271 1.271 0 0 0-1.134-1.022 1.425 1.425 0 0 0-1.245 1.001V38.14h-4.35V19.058h4.493v1.674ZM105.892 18.82h2.12v3.136h-2.12v11.79c.143.604.249 1.304.922 1.304h1.33v3.301h-2.84c-3.222-.164-3.789-1.097-3.789-4.038V21.956h-1.923V18.82h1.923V15.2h4.356l.021 3.62Z"/></svg>