<svg width="150" height="62" viewBox="0 0 150 62" fill="none" xmlns="http://www.w3.org/2000/svg">
<path d="M127.976 27.4622C127.976 18.852 127.341 16.858 126.526 15.9516C124.985 13.9577 122.356 13.7764 122.356 11.2387C122.356 6.3444 136.224 6.34441 137.583 6.34441C141.662 6.34441 150 6.43504 150 11.0574C150 15.6798 147.462 13.3233 145.831 15.1359C144.562 16.5861 144.471 22.7492 144.471 27.4622V34.1692C144.471 46.2236 145.287 45.9517 146.646 46.7674C148.369 47.7643 150 48.1269 150 50.2115C150 52.2961 149.366 55.287 134.501 55.287C119.637 55.287 123.082 55.287 123.082 50.8459C123.082 46.4048 125.347 48.3081 126.435 47.0393C127.251 46.1329 127.885 43.5952 127.885 34.0785V27.3716L127.976 27.4622Z" fill="#800000"/>
<path d="M110.211 43.6858C110.211 45.6798 110.483 46.7674 112.296 47.7643C113.655 48.4894 114.562 48.9426 114.562 50.574C114.562 52.2054 114.38 55.5589 101.057 55.5589C87.7338 55.5589 89.3652 55.5589 89.3652 50.9365C89.0933 45.6798 94.0782 51.4804 94.0782 37.7039C94.0782 23.9275 93.2625 34.1692 89.909 34.1692C80.3924 34.1692 81.2987 34.4411 81.2987 40.5136C81.2987 49.7583 85.4679 46.0423 85.4679 50.4834C85.4679 54.9245 75.5888 55.4683 72.3259 55.4683C69.0631 55.4683 59.8184 55.1964 59.8184 50.574C59.8184 45.9517 60.8153 48.3081 61.9936 47.7643C64.4407 46.5861 65.3471 46.858 65.3471 32.6284C65.3471 18.3988 65.0752 16.0423 62.5374 14.6828C61.5404 14.139 60.2715 13.5045 60.2715 12.145C60.2715 6.88821 71.6008 6.34441 75.4075 6.34441C79.2141 6.34441 86.1023 6.70695 86.1023 10.7855C86.1023 14.864 84.9241 13.5952 83.3833 14.5921C81.6613 15.4985 81.2987 16.3142 81.2987 22.3867C81.2987 28.4592 83.0208 25.7402 86.2836 25.7402H89.7277C94.1688 25.7402 94.0782 25.1057 94.0782 22.9305C94.0782 15.4985 92.8999 15.0453 92.0842 14.5921C90.8153 13.8671 89.5465 13.2326 89.5465 11.5106C89.5465 9.78852 89.2746 6.43505 102.779 6.43505C116.284 6.43505 115.015 6.43504 115.015 11.2387C115.015 16.0423 114.29 13.7764 112.93 14.4109C110.936 15.3172 110.12 15.0453 110.12 25.8308V43.5045L110.211 43.6858Z" fill="#800000"/>
<path d="M15.3172 54.6526C9.51662 52.2961 7.06949 51.0272 4.07855 51.0272C1.08761 51.0272 2.99094 51.1178 2.3565 51.1178C1.26888 51.1178 0.81571 50.1208 0.81571 49.1239C0.81571 46.3142 3.62538 44.6828 6.16314 44.6828C8.70091 44.6828 7.06949 44.6828 7.61329 44.6828C8.1571 44.6828 8.61027 44.5921 8.61027 44.0483C8.61027 42.5982 0 38.0665 0 24.4713C0 10.8761 11.4199 0 26.1934 0C40.9668 0 52.1148 16.4955 52.1148 25.1964C52.1148 33.8973 45.861 43.5045 35.9819 47.4924C35.6193 47.5831 35.0755 48.0363 35.0755 48.3988C35.0755 49.4864 37.3414 51.4804 45.2266 51.4804C53.1118 51.4804 50.0302 50.3021 50.574 50.3021C51.571 50.3021 52.2961 52.0242 52.2961 52.9305C52.2961 55.0151 47.855 61.0876 36.7976 61.0876C25.7402 61.0876 29.6375 60.2719 25.6495 58.8218L15.2266 54.5619L15.3172 54.6526ZM23.1118 10.0604C19.3051 10.0604 17.4018 13.9577 17.4018 17.3112C17.4018 23.1118 21.4804 39.2447 28.8218 39.2447C36.1631 39.2447 34.713 35.6193 34.713 31.994C34.713 25.8308 31.0876 10.0604 23.1118 10.0604Z" fill="#800000"/>
</svg>
